# File created by Blade
# Date/Time:  Thu Jan 15 19:03:44 2015
#---------------------------------------------------------
:version 1.10
:name HOM
:units
  mass 1.0
  length 1.000000
  angle deg
:documentation
     Acclaim Skeleton File
:root
   axis xyz
   order TX TY TZ RX RY RZ
   position 0.000000 0.000000 0.000000
   orientation 0 0 0
:bonedata
   begin
      id 1
      name Spine_dum
      direction 0.000000 1.000000 0.000000
      length 4.354460
      axis 0.0 0.0 0.0 xyz
   end
   begin
      id 2
      name LeftUpLeg_dum
      direction 1.000000 0.000000 0.000000
      length 4.291077
      axis 0.0 0.0 0.0 xyz
   end
   begin
      id 3
      name RightUpLeg_dum
      direction -1.000000 0.000000 0.000000
      length 4.291077
      axis 0.0 0.0 0.0 xyz
   end
   begin
      id 4
      name Spine
      direction 0.000000 1.000000 0.000000
      length 0.000000
      axis 0.0 0.0 0.0 xyz
      dof rx ry rz
   end
   begin
      id 5
      name Spine_dum1
      direction 0.000000 1.000000 0.000000
      length 16.581769
      axis 0.0 0.0 0.0 xyz
   end
   begin
      id 6
      name Spine_dum2
      direction 0.000000 1.000000 0.000000
      length 12.903700
      axis 0.0 0.0 0.0 xyz
   end
   begin
      id 7
      name Spine_dum3
      direction 0.000000 1.000000 0.000000
      length 12.903700
      axis 0.0 0.0 0.0 xyz
   end
   begin
      id 8
      name Head
      direction 0.000000 1.000000 0.000000
      length 4.527550
      axis 0.0 0.0 0.0 xyz
      dof rx ry rz
   end
   begin
      id 9
      name LeftShoulder
      direction 1.000000 0.000000 0.000000
      length 6.942033
      axis 0.0 0.0 -90.0 xyz
      dof rx ry rz
   end
   begin
      id 10
      name LeftArm
      direction 1.000000 0.000000 0.000000
      length 11.010391
      axis 0.0 0.0 -90.0 xyz
      dof rx ry rz
   end
   begin
      id 11
      name LeftForeArm
      direction 1.000000 0.000000 0.000000
      length 8.054994
      axis 0.0 0.0 -90.0 xyz
      dof rz ry rx
   end
   begin
      id 12
      name LeftHand
      direction 0.000000 0.000000 0.000000
      length 0.000000
      axis 0.0 0.0 -90.0 xyz
      dof rx ry rz
   end
   begin
      id 13
      name LeftHand_dum1
      direction 0.000000 0.000000 0.000000
      length 0.000000
      axis 0.0 0.0 -90.0 xyz
   end
   begin
      id 14
      name LeftHand_dum2
      direction 1.000000 0.000000 0.000000
      length 3.937000
      axis 0.0 0.0 -90.0 xyz
   end
   begin
      id 15
      name LeftHandThumb1
      direction 0.000000 0.000000 1.000000
      length 3.937000
      axis 0.0 0.0 -90.0 xyz
      dof rx ry rz
   end
   begin
      id 16
      name RightShoulder
      direction -1.000000 0.000000 0.000000
      length 6.942033
      axis 0.0 0.0 90.0 xyz
      dof rx ry rz
   end
   begin
      id 17
      name RightArm
      direction -1.000000 0.000000 0.000000
      length 11.010391
      axis 0.0 0.0 90.0 xyz
      dof rx ry rz
   end
   begin
      id 18
      name RightForeArm
      direction -1.000000 0.000000 0.000000
      length 8.054994
      axis 0.0 0.0 90.0 xyz
      dof rz ry rx
   end
   begin
      id 19
      name RightHand
      direction 0.000000 0.000000 0.000000
      length 0.000000
      axis 0.0 0.0 90.0 xyz
      dof rx ry rz
   end
   begin
      id 20
      name RightHand_dum1
      direction 0.000000 0.000000 0.000000
      length 0.000000
      axis 0.0 0.0 90.0 xyz
   end
   begin
      id 21
      name RightHand_dum2
      direction -1.000000 0.000000 0.000000
      length 3.937000
      axis 0.0 0.0 90.0 xyz
   end
   begin
      id 22
      name RightHandThumb1
      direction 0.000000 0.000000 1.000000
      length 3.937000
      axis 0.0 0.0 90.0 xyz
      dof rx ry rz
   end
   begin
      id 23
      name LeftUpLeg
      direction 0.000000 -1.000000 0.000000
      length 17.039958
      axis 0.0 0.0 0.0 xyz
      dof rx ry rz
   end
   begin
      id 24
      name LeftLeg
      direction 0.000000 -1.000000 0.000000
      length 16.939743
      axis 0.0 0.0 0.0 xyz
      dof rx ry rz
   end
   begin
      id 25
      name LeftFoot
      direction 0.000000 -0.258819 0.965926
      length 5.235044
      axis 15.0 0.0 0.0 xyz
      dof rx ry rz
   end
   begin
      id 26
      name LeftToeBase
      direction 0.000000 0.000000 1.000000
      length 2.952750
      axis 0.0 0.0 0.0 xyz
      dof rx ry rz
   end
   begin
      id 27
      name RightUpLeg
      direction 0.000000 -1.000000 0.000000
      length 17.039958
      axis 0.0 0.0 0.0 xyz
      dof rx ry rz
   end
   begin
      id 28
      name RightLeg
      direction 0.000000 -1.000000 0.000000
      length 16.939743
      axis 0.0 0.0 0.0 xyz
      dof rx ry rz
   end
   begin
      id 29
      name RightFoot
      direction 0.000000 -0.258819 0.965926
      length 5.235044
      axis 15.0 0.0 0.0 xyz
      dof rx ry rz
   end
   begin
      id 30
      name RightToeBase
      direction 0.000000 0.000000 1.000000
      length 2.952750
      axis 0.0 0.0 0.0 xyz
      dof rx ry rz
   end
:hierarchy
   begin
      root Spine_dum LeftUpLeg_dum RightUpLeg_dum
      Spine_dum Spine
      LeftUpLeg_dum LeftUpLeg
      RightUpLeg_dum RightUpLeg
      Spine Spine_dum1 Spine_dum2 Spine_dum3
      Spine_dum1 Head
      Spine_dum2 LeftShoulder
      Spine_dum3 RightShoulder
      LeftShoulder LeftArm
      LeftArm LeftForeArm
      LeftForeArm LeftHand
      LeftHand LeftHand_dum1 LeftHand_dum2
      LeftHand_dum1 LeftHandThumb1
      RightShoulder RightArm
      RightArm RightForeArm
      RightForeArm RightHand
      RightHand RightHand_dum1 RightHand_dum2
      RightHand_dum1 RightHandThumb1
      LeftUpLeg LeftLeg
      LeftLeg LeftFoot
      LeftFoot LeftToeBase
      RightUpLeg RightLeg
      RightLeg RightFoot
      RightFoot RightToeBase
   end

# File created by Blade
# Date/Time:  Thu Jan 15 19:03:33 2015
# Frame Rate: 120.000 fps
#------------------------------------------------------
:FULLY-SPECIFIED
:DEGREES
1747
root -1.668371 35.580910 -8.688466 -189.713414 -5.598121 -177.592241
Spine 5.214841 7.479813 -2.431130
Head 4.626561 -10.895494 16.370830
LeftShoulder -7.145108 15.648583 -1.630811
LeftArm 17.042005 -6.944423 -78.722625
LeftForeArm -0.000000 0.918020 11.753589
LeftHand 2.457503 -0.000000 0.829807
LeftHandThumb1 -26.253704 33.147579 0.000000
RightShoulder -21.751128 -7.948121 8.310699
RightArm 1.875713 4.453648 72.353390
RightForeArm -0.000000 -29.020129 27.303379
RightHand -0.176144 -0.000000 4.748852
RightHandThumb1 -24.326973 -32.862282 -0.000000
LeftUpLeg 9.295175 11.720815 -7.712733
LeftLeg 3.593536 -0.000000 -0.000000
LeftFoot -16.962073 21.824207 -6.690481
LeftToeBase 16.765254 -0.000000 -0.000000
RightUpLeg -72.261640 5.366931 2.637989
RightLeg 68.409849 -0.000000 -0.000000
RightFoot -13.108073 -37.068401 5.739852
RightToeBase 4.445716 -0.000000 -0.000000
1748
root -1.668741 35.579105 -8.687912 -189.696611 -5.590286 -177.612970
Spine 5.194528 7.576751 -2.487317
Head 4.569470 -10.962494 16.412769
LeftShoulder -7.167039 15.681579 -1.626754
LeftArm 16.809257 -6.944748 -78.705757
LeftForeArm -0.000000 0.746658 11.729435
LeftHand 2.344666 -0.000000 0.841011
LeftHandThumb1 -26.253704 33.147579 0.000000
RightShoulder -21.742762 -7.933119 8.306313
RightArm 1.877619 4.318729 72.388421
RightForeArm -0.000000 -29.087832 27.300153
RightHand -0.083586 -0.000000 4.950139
RightHandThumb1 -24.326973 -32.862282 -0.000000
LeftUpLeg 9.274748 11.762260 -7.727196
LeftLeg 3.605662 -0.000000 -0.000000
LeftFoot -16.964072 21.794191 -6.689829
LeftToeBase 16.743256 -0.000000 -0.000000
RightUpLeg -72.208636 5.303908 2.855498
RightLeg 68.544345 -0.000000 -0.000000
RightFoot -11.565137 -37.058015 4.532646
RightToeBase 4.592194 -0.000000 -0.000000
1749
root -1.667376 35.579224 -8.687414 -189.688765 -5.580814 -177.615484
Spine 5.181163 7.661008 -2.521353
Head 4.538823 -11.026075 16.438607
LeftShoulder -7.195448 15.765597 -1.632945
LeftArm 16.665226 -6.930083 -78.683900
LeftForeArm -0.000000 0.691951 11.657068
LeftHand 2.454290 -0.000000 0.760461
LeftHandThumb1 -26.253704 33.147579 0.000000
RightShoulder -21.753444 -7.948427 8.328639
RightArm 1.945891 4.153186 72.418482
RightForeArm -0.000000 -29.113130 27.279423
RightHand -0.118103 -0.000000 4.998454
RightHandThumb1 -24.326973 -32.862282 -0.000000
LeftUpLeg 9.255365 11.817016 -7.715653
LeftLeg 3.630712 -0.000000 -0.000000
LeftFoot -16.978491 21.747484 -6.704456
LeftToeBase 16.749378 -0.000000 -0.000000
RightUpLeg -72.151424 5.254281 3.073071
RightLeg 68.667132 -0.000000 -0.000000
RightFoot -9.488427 -37.099450 2.983041
RightToeBase 4.988047 -0.000000 -0.000000
1750
root -1.665434 35.579620 -8.689443 -189.690333 -5.545447 -177.615239
Spine 5.168619 7.774515 -2.552210
Head 4.517328 -11.074817 16.468182
LeftShoulder -7.213118 15.835577 -1.633698
LeftArm 16.481436 -7.032946 -78.686099
LeftForeArm -0.000000 0.779516 11.666192
LeftHand 2.453775 -0.000000 0.715072
LeftHandThumb1 -26.253704 33.147579 0.000000
RightShoulder -21.773965 -7.952105 8.377285
RightArm 1.997909 3.987090 72.413261
RightForeArm -0.000000 -29.245583 27.297298
RightHand -0.149179 0.000000 5.060890
RightHandThumb1 -24.326973 -32.862282 -0.000000
LeftUpLeg 9.251212 11.907782 -7.690077
LeftLeg 3.650521 -0.000000 -0.000000
LeftFoot -16.995704 21.687133 -6.722690
LeftToeBase 16.741977 -0.000000 -0.000000
RightUpLeg -72.105657 5.254554 3.246476
RightLeg 68.821043 -0.000000 -0.000000
RightFoot -6.939140 -37.221769 1.348511
RightToeBase 4.899443 -0.000000 -0.000000
1751
root -1.663509 35.580949 -8.690695 -189.675793 -5.513600 -177.611323
Spine 5.133940 7.862747 -2.577770
Head 4.526379 -11.106259 16.473212
LeftShoulder -7.230190 15.928809 -1.653490
LeftArm 16.294856 -7.057544 -78.631254
LeftForeArm -0.000000 0.901082 11.731901
LeftHand 2.379029 -0.000000 0.750075
LeftHandThumb1 -26.253704 33.147579 0.000000
RightShoulder -21.787986 -7.971997 8.412502
RightArm 2.053228 3.855034 72.430029
RightForeArm 0.000000 -29.310705 27.284384
RightHand -0.047762 -0.000000 5.165694
RightHandThumb1 -24.326973 -32.862282 -0.000000
LeftUpLeg 9.228109 11.978704 -7.669036
LeftLeg 3.671802 -0.000000 -0.000000
LeftFoot -17.004879 21.655798 -6.741962
LeftToeBase 16.729011 -0.000000 -0.000000
RightUpLeg -72.067942 5.250237 3.437203
RightLeg 68.928078 -0.000000 -0.000000
RightFoot -3.954537 -37.434049 -0.501331
RightToeBase 5.480947 -0.000000 -0.000000
1752
root -1.662583 35.581871 -8.694353 -189.624803 -5.423827 -177.612169
Spine 5.044200 7.983626 -2.603409
Head 4.552234 -11.126513 16.468473
LeftShoulder -7.296618 16.059680 -1.692085
LeftArm 16.167166 -7.010910 -78.561439
LeftForeArm -0.000000 0.884399 11.773089
LeftHand 2.462880 0.000000 0.478433
LeftHandThumb1 -26.253704 33.147579 0.000000
RightShoulder -21.795227 -7.995889 8.442752
RightArm 2.092484 3.712858 72.439715
RightForeArm -0.000000 -29.406493 27.310977
RightHand -0.041791 0.000000 5.207663
RightHandThumb1 -24.326973 -32.862282 -0.000000
LeftUpLeg 9.182801 12.128617 -7.646317
LeftLeg 3.672696 -0.000000 -0.000000
LeftFoot -17.014004 21.591671 -6.754443
LeftToeBase 16.717330 -0.000000 -0.000000
RightUpLeg -72.092845 5.309907 3.607568
RightLeg 69.039210 -0.000000 -0.000000
RightFoot -0.591417 -37.665530 -2.400974
RightToeBase 5.972550 -0.000000 -0.000000
1753
root -1.660033 35.582654 -8.695061 -189.595892 -5.392641 -177.615558
Spine 4.994520 8.054117 -2.646881
Head 4.570867 -11.154567 16.475284
LeftShoulder -7.339862 16.171277 -1.716990
LeftArm 16.010715 -6.992053 -78.485050
LeftForeArm 0.000000 0.927065 11.900444
LeftHand 2.401900 -0.000000 0.692339
LeftHandThumb1 -26.253704 33.147579 0.000000
RightShoulder -21.797278 -7.998538 8.476654
RightArm 2.110787 3.591761 72.455185
RightForeArm 0.000000 -29.521811 27.356442
RightHand -0.002294 -0.000000 5.188481
RightHandThumb1 -24.326973 -32.862282 -0.000000
LeftUpLeg 9.141679 12.204178 -7.635406
LeftLeg 3.699082 -0.000000 -0.000000
LeftFoot -17.038085 21.545842 -6.795776
LeftToeBase 16.770378 -0.000000 -0.000000
RightUpLeg -72.117120 5.331207 3.727953
RightLeg 69.169134 -0.000000 -0.000000
RightFoot 3.226342 -37.772976 -4.594712
RightToeBase 6.580567 -0.000000 -0.000000
1754
root -1.657471 35.582752 -8.694547 -189.576869 -5.366679 -177.617119
Spine 4.973094 8.111885 -2.690069
Head 4.549935 -11.183756 16.486439
LeftShoulder -7.397660 16.250756 -1.722607
LeftArm 15.846934 -7.009875 -78.446208
LeftForeArm -0.000000 1.024603 12.050943
LeftHand 2.356396 -0.000000 0.510791
LeftHandThumb1 -26.253704 33.147579 0.000000
RightShoulder -21.825963 -7.997838 8.517853
RightArm 2.162620 3.487422 72.468511
RightForeArm -0.000000 -29.648228 27.411650
RightHand 0.001342 -0.000000 5.312243
RightHandThumb1 -24.326973 -32.862282 -0.000000
LeftUpLeg 9.112098 12.239499 -7.628418
LeftLeg 3.718768 -0.000000 -0.000000
LeftFoot -17.047209 21.532235 -6.797531
LeftToeBase 16.724361 -0.000000 -0.000000
RightUpLeg -72.154179 5.346112 3.847257
RightLeg 69.290701 -0.000000 -0.000000
RightFoot 7.250791 -37.903093 -6.694002
RightToeBase 7.048049 -0.000000 -0.000000
1755
root -1.654714 35.583729 -8.694380 -189.549521 -5.346253 -177.610424
Spine 4.936302 8.153364 -2.714784
Head 4.558277 -11.180956 16.474664
LeftShoulder -7.465637 16.354593 -1.756933
LeftArm 15.741371 -6.993065 -78.378733
LeftForeArm -0.000000 0.966878 12.124641
LeftHand 2.502519 -0.000000 0.700507
LeftHandThumb1 -26.253704 33.147579 0.000000
RightShoulder -21.845240 -7.995116 8.530371
RightArm 2.185140 3.377220 72.506673
RightForeArm 0.000000 -29.731270 27.460391
RightHand 0.008575 -0.000000 5.339518
RightHandThumb1 -24.326973 -32.862282 -0.000000
LeftUpLeg 9.079623 12.276490 -7.617789
LeftLeg 3.725161 -0.000000 -0.000000
LeftFoot -17.052982 21.528493 -6.793686
LeftToeBase 16.730519 -0.000000 -0.000000
RightUpLeg -72.215245 5.368568 3.952986
RightLeg 69.425384 -0.000000 -0.000000
RightFoot 11.758881 -37.854700 -9.275439
RightToeBase 7.687787 -0.000000 -0.000000
1756
root -1.651317 35.584423 -8.692551 -189.514502 -5.329281 -177.600542
Spine 4.889130 8.185811 -2.743481
Head 4.575219 -11.169219 16.473955
LeftShoulder -7.510436 16.437573 -1.768192
LeftArm 15.575415 -7.079959 -78.356852
LeftForeArm 0.000000 0.975373 12.310361
LeftHand 2.491831 -0.000000 0.521716
LeftHandThumb1 -26.253704 33.147579 0.000000
RightShoulder -21.848768 -8.009879 8.549585
RightArm 2.219116 3.323122 72.557231
RightForeArm -0.000000 -29.811561 27.501157
RightHand 0.064599 -0.000000 5.440195
RightHandThumb1 -24.326973 -32.862282 -0.000000
LeftUpLeg 9.039883 12.263383 -7.613514
LeftLeg 3.725091 -0.000000 -0.000000
LeftFoot -17.050297 21.546582 -6.782497
LeftToeBase 16.745254 -0.000000 -0.000000
RightUpLeg -72.316050 5.385640 4.074027
RightLeg 69.566929 -0.000000 -0.000000
RightFoot 16.710807 -37.612434 -12.142311
RightToeBase 8.405820 -0.000000 -0.000000
